<svg width="3000" height="3500" viewBox="0 0 3000 3500" fill="none" xmlns="http://www.w3.org/2000/svg">
<g clip-path="url(#clip0)">
<rect width="3000" height="3500" fill="white"/>
<!--<path d="M25 1029H686.74C696.684 1029 704.74 1037.05 704.74 1047V1355.44C704.74 1366.87 710.68 1381.4 718.688 1389.55L805.597 1478C813.657 1486.2 828.154 1492.28 839.656 1492.28H1157.66C1167.6 1492.28 1175.65 1500.34 1175.65 1510.27V1650.19C1175.65 1655.29 1172.17 1663.69 1168.56 1667.29L1054.78 1781.03C1046.67 1789.13 1040.66 1803.65 1040.66 1815.11V1834.09C1040.66 1857.28 1059.46 1876.08 1082.66 1876.08H1229.64C1241.11 1876.08 1255.64 1870.07 1263.74 1861.96L1562.51 1563.34C1566.12 1559.73 1574.54 1556.25 1579.63 1556.25H1677.64C1682.74 1556.25 1691.15 1559.73 1694.76 1563.34L1801.53 1670.06C1805.14 1673.67 1808.63 1682.08 1808.63 1687.18V1785.11C1808.63 1790.22 1805.14 1798.62 1801.53 1802.23L1782.76 1821C1774.65 1829.1 1768.63 1843.63 1768.63 1855.09V1882.06C1768.63 1905.25 1787.43 1924.05 1810.63 1924.05H2048.61C2058.55 1924.05 2066.62 1932.12 2066.62 1942.05V2125.95C2066.62 2149.15 2085.42 2167.95 2108.62 2167.95H2280.61C2290.55 2167.95 2298.61 2176.01 2298.61 2185.96V2229.87C2298.61 2253.06 2317.42 2271.87 2340.61 2271.87H2475.6C2485.54 2271.87 2493.6 2279.93 2493.6 2289.88V2401.35C2493.6 2412.82 2499.61 2427.33 2507.73 2435.45L2711.26 2638.88C2719.37 2646.99 2733.89 2653 2745.36 2653H3085C3090.52 2653 3095 2648.52 3095 2643V2639C3095 2633.48 3090.52 2629 3085 2629H2745.36C2740.26 2629 2731.84 2625.51 2728.23 2621.9L2524.7 2418.47C2521.08 2414.86 2517.6 2406.45 2517.6 2401.35V2289.88C2517.6 2266.68 2498.8 2247.87 2475.6 2247.87H2340.61C2330.67 2247.87 2322.61 2239.81 2322.61 2229.87V2185.96C2322.61 2162.75 2303.81 2143.95 2280.61 2143.95H2108.62C2098.67 2143.95 2090.62 2135.89 2090.62 2125.95V1942.05C2090.62 1918.86 2071.81 1900.05 2048.61 1900.05H1810.63C1800.69 1900.05 1792.63 1892 1792.63 1882.06V1855.09C1792.63 1850 1796.12 1841.58 1799.73 1837.97L1818.5 1819.21C1826.61 1811.1 1832.63 1796.58 1832.63 1785.11V1687.18C1832.63 1675.72 1826.61 1661.2 1818.5 1653.09L1711.73 1546.36C1703.61 1538.26 1689.1 1532.25 1677.64 1532.25H1579.63C1568.17 1532.25 1553.65 1538.26 1545.54 1546.37L1246.78 1844.99C1243.17 1848.59 1234.75 1852.08 1229.64 1852.08H1082.66C1072.71 1852.08 1064.66 1844.03 1064.66 1834.09V1815.11C1064.66 1810.02 1068.14 1801.6 1071.75 1798L1185.53 1684.27C1193.64 1676.16 1199.65 1661.65 1199.65 1650.19V1510.27C1199.65 1487.08 1180.85 1468.28 1157.66 1468.28H839.656C834.593 1468.28 826.264 1464.79 822.716 1461.18L735.806 1372.73C732.21 1369.07 728.739 1360.58 728.739 1355.44V1047C728.74 1023.8 709.94 1005 686.741 1005H25C19.477 1005 15 1009.48 15 1015V1019C15 1024.52 19.477 1029 25 1029Z" fill="#D9F5FF"/>-->
<path d="M1490.5 1933.97C1832.07 1933.97 2108.97 1657.07 2108.97 1315.5C2108.97 973.93 1832.07 697.032 1490.5 697.032C1148.93 697.032 872.032 973.93 872.032 1315.5C872.032 1657.07 1148.93 1933.97 1490.5 1933.97ZM2115 1315.5C2115 1660.4 1835.4 1940 1490.5 1940C1145.6 1940 866 1660.4 866 1315.5C866 970.598 1145.6 691 1490.5 691C1835.4 691 2115 970.598 2115 1315.5Z" fill="white" stroke="#FFA8AF" stroke-width="4"/>
<!--<path d="M1215.5 2507L1046.86 2337.39C1044.07 2334.58 1042.5 2330.78 1042.5 2326.81V1900.2C1042.5 1888.23 1047.27 1876.75 1055.75 1868.31L1509.5 1416.5L1961.17 960.888C1964.98 957.05 1965.04 950.884 1961.32 946.964L1884.5 866" stroke="#DA2128" stroke-width="10" stroke-linecap="round" stroke-linejoin="round"/>-->
<path d="M1666 551V1508.37C1666 1512.3 1664.46 1516.07 1661.7 1518.88L1318.8 1868.12C1316.04 1870.93 1314.5 1874.7 1314.5 1878.63V2215.99C1314.5 2219.85 1315.99 2223.56 1318.65 2226.35L1409 2321" stroke="#F58220" stroke-width="10" stroke-linecap="round" stroke-linejoin="round"/>
<path d="M1298 544V984.856C1298 988.793 1299.55 992.573 1302.31 995.379L1477.7 1173.54C1483.43 1179.35 1483.45 1188.67 1477.77 1194.52L1315.25 1361.63C1312.52 1364.43 1311 1368.19 1311 1372.09V1509.31C1311 1513.27 1312.57 1517.08 1315.37 1519.89L1661.63 1867.61C1664.43 1870.42 1666 1874.23 1666 1878.19V2396" stroke="#A1A2A3" stroke-width="10" stroke-linecap="round" stroke-linejoin="round"/>
<path d="M890 670V829.798C890 833.77 891.575 837.579 894.38 840.391L1885.19 1833.68C1887.95 1836.45 1889.52 1840.19 1889.57 1844.11L1892.44 2112.47C1892.48 2116.34 1894.01 2120.04 1896.72 2122.81L2083.66 2313.57C2086.44 2316.41 2090.23 2318.03 2094.2 2318.07L2336 2321" stroke="#48B85E" stroke-width="10" stroke-linecap="round" stroke-linejoin="round"/>
<path d="M569 765.5V1425.81C569 1429.77 570.57 1433.58 573.367 1436.39L863.036 1727.48C868.834 1733.31 878.241 1733.39 884.131 1727.65L1075.19 1541.7C1077.96 1539 1081.65 1537.48 1085.51 1537.44L1346.37 1535.06C1350.3 1535.02 1354.06 1533.44 1356.84 1530.66L1405.67 1481.83C1408.45 1479.05 1412.2 1477.48 1416.12 1477.44L1798.88 1473.56C1802.8 1473.52 1806.55 1471.95 1809.33 1469.18L2224.73 1054.27C2227.47 1051.53 2229.04 1047.84 2229.12 1043.96L2231.5 926" stroke="#0078BF" stroke-width="10" stroke-linecap="round" stroke-linejoin="round"/>
<path d="M1618.5 1601L1628.18 1609.99C1630.96 1612.57 1634.6 1614 1638.39 1614H1851.32C1855.28 1614 1859.08 1612.44 1861.89 1609.65L2144.11 1329.85C2146.92 1327.06 2150.72 1325.5 2154.68 1325.5H2456" stroke="#FFC61A" stroke-width="10" stroke-linecap="round" stroke-linejoin="round"/>
<path d="M694 763.5V865.844C694 869.789 695.553 873.574 698.324 876.381L878.923 1059.37C881.546 1062.03 883.084 1065.57 883.235 1069.3L886.264 1144.18C886.416 1147.92 887.964 1151.48 890.605 1154.14L1075.1 1340.07C1077.92 1342.9 1081.75 1344.5 1085.75 1344.5H1579.8C1583.77 1344.5 1587.58 1346.07 1590.39 1348.88L1876.67 1634.19C1879.45 1636.95 1883.19 1638.52 1887.11 1638.56L2171.41 1641.44C2175.31 1641.48 2179.05 1643.04 2181.82 1645.79L2374.62 1837.15C2377.42 1839.94 2379.02 1843.72 2379.05 1847.68L2380.5 2029" stroke="#8E479B" stroke-width="10" stroke-linecap="round" stroke-linejoin="round"/>
<path d="M1074 575V605.858C1074 609.794 1075.55 613.572 1078.31 616.378L1254.2 795.131C1256.96 797.931 1260.7 799.539 1264.63 799.608L1365.93 801.393C1369.82 801.462 1373.54 803.044 1376.29 805.805L1496.65 926.634C1499.44 929.431 1501.01 933.214 1501.02 937.163L1501.98 1185.84C1501.99 1189.79 1503.56 1193.57 1506.35 1196.37L1613.6 1304.08C1616.42 1306.91 1620.24 1308.5 1624.23 1308.5H1754.72C1758.74 1308.5 1762.59 1310.11 1765.41 1312.97L1929.73 1479.67C1932.47 1482.45 1934.02 1486.18 1934.04 1490.09L1935.46 1681.41C1935.48 1685.31 1937.04 1689.06 1939.78 1691.84L2211.67 1967.12C2214.45 1969.93 2216 1973.71 2216 1977.66V2295.5" stroke="#B4D445" stroke-width="10" stroke-linecap="round" stroke-linejoin="round"/>
<path d="M1281 1008.5L1176.33 1106.93C1173.55 1109.54 1169.87 1111 1166.06 1111H1035.38C1031.3 1111 1027.4 1112.66 1024.57 1115.6L903.167 1241.67C900.492 1244.45 898.99 1248.15 898.972 1252.01L897.529 1558.4C897.51 1562.31 895.967 1566.06 893.227 1568.85L759.289 1705.14C756.54 1707.93 754.995 1711.7 754.987 1715.62L754 2195" stroke="#FFC61A" stroke-width="10" stroke-linecap="round" stroke-linejoin="round"/>
<path d="M1296.5 1008.5L1181.36 1119.31C1178.56 1122 1174.83 1123.5 1170.95 1123.5H1038.86C1034.79 1123.5 1030.9 1125.15 1028.08 1128.07L914.724 1245.14C912.015 1247.94 910.5 1251.68 910.5 1255.57V1370.59C910.5 1374.39 911.942 1378.04 914.534 1380.82L966.5 1436.5" stroke="#6AC9C8" stroke-width="10" stroke-linecap="round" stroke-linejoin="round"/>
<path d="M1425 2336.5H1625.61C1633.85 2336.5 1640.55 2343.15 1640.61 2351.39L1643 2665" stroke="#ACBFE3" stroke-width="10" stroke-linecap="round" stroke-linejoin="round"/>
<path d="M1994 1355.5V1376.86C1994 1380.79 1995.55 1384.57 1998.31 1387.38L2258.33 1651.76C2261.01 1654.48 2262.55 1658.13 2262.63 1661.95L2265.37 1785.12C2265.45 1788.9 2266.96 1792.51 2269.59 1795.22L2354.08 1882.44C2356.91 1885.35 2360.79 1887 2364.85 1887H2544.82C2552.98 1887 2559.64 1893.52 2559.81 1901.68L2562.5 2028" stroke="#E66AC0" stroke-width="10" stroke-linecap="round" stroke-linejoin="round"/>
<path d="M595.5 1360.5L873.472 1637.99C879.301 1643.81 888.73 1643.84 894.597 1638.06L1013.33 1521.08C1017.36 1517.11 1022.45 1514.41 1027.99 1513.3L1034.5 1512M1372.5 1535.5L1316.81 1482.13C1314.04 1479.48 1310.36 1477.99 1306.53 1477.96L1167.8 1477.04C1164.07 1477.01 1160.46 1478.38 1157.68 1480.87L1127.27 1508.16C1124.52 1510.63 1120.95 1512 1117.26 1512H1034.5M1034.5 1512L1027.51 1510.83C1026.17 1510.61 1024.86 1510.25 1023.6 1509.76V1509.76C1018.92 1507.94 1014.67 1505.16 1011.13 1501.59L900.099 1389.62C898.392 1387.9 896.293 1386.62 893.982 1385.88L877 1380.5" stroke="#00C1F3" stroke-width="10" stroke-linecap="round" stroke-linejoin="round"/>
<path fill-rule="evenodd" clip-rule="evenodd" d="M1259 189C1261.76 189 1264 191.239 1264 194V1070.33C1264 1083.61 1258.72 1096.34 1249.32 1105.72L767.646 1586.45C759.83 1594.25 747.169 1594.24 739.366 1586.42L415.812 1262.39C412.096 1258.67 409.995 1253.63 409.965 1248.37L409 1080.53C408.984 1077.77 411.21 1075.52 413.971 1075.5C416.733 1075.48 418.984 1077.71 419 1080.47L419.965 1248.32C419.98 1250.94 421.03 1253.46 422.888 1255.32L746.442 1579.36C750.344 1583.26 756.674 1583.27 760.582 1579.37L1242.26 1098.65C1249.77 1091.14 1254 1080.96 1254 1070.33V194C1254 191.239 1256.24 189 1259 189Z" fill="white" stroke="#FAA400" stroke-width="4" stroke-linecap="round" stroke-linejoin="round"/>
<path fill-rule="evenodd" clip-rule="evenodd" d="M414.5 589.5C417.261 589.5 419.5 591.739 419.5 594.5V949.031C419.5 954.546 423.964 959.02 429.479 959.031L1602.33 961.487C1607.61 961.498 1612.67 963.594 1616.41 967.318L1875.18 1225.12C1878.9 1228.83 1881.01 1233.84 1881.06 1239.09L1882.44 1376.82C1882.46 1379.44 1883.52 1381.95 1885.37 1383.8L2128.16 1626.59C2131.9 1630.33 2134 1635.39 2134.02 1640.68L2135.46 2206.61C2135.49 2217.59 2126.65 2226.54 2115.67 2226.66L1906.4 2228.84C1900.91 2228.9 1896.5 2233.36 1896.5 2238.84V2735.5C1896.5 2738.26 1894.26 2740.5 1891.5 2740.5C1888.74 2740.5 1886.5 2738.26 1886.5 2735.5V2238.84C1886.5 2227.88 1895.33 2218.96 1906.29 2218.84L2115.57 2216.66C2121.06 2216.6 2125.48 2212.12 2125.46 2206.63L2124.02 1640.7C2124.01 1638.06 2122.96 1635.53 2121.09 1633.66L1878.3 1390.87C1874.59 1387.17 1872.49 1382.16 1872.44 1376.92L1871.06 1239.19C1871.04 1236.57 1869.98 1234.06 1868.12 1232.21L1609.35 974.403C1607.48 972.541 1604.95 971.493 1602.31 971.487L429.458 969.031C418.429 969.008 409.5 960.061 409.5 949.031V594.5C409.5 591.739 411.739 589.5 414.5 589.5Z" fill="white" stroke="#EA4184" stroke-width="4" stroke-linecap="round" stroke-linejoin="round"/>
<circle cx="1495" cy="1433" r="364" stroke="#894E35" stroke-width="10"/>
<path fill-rule="evenodd" clip-rule="evenodd" d="M1878.79 2063.77L1844.02 2094.08C1840.38 2097.25 1835.71 2099 1830.88 2099H1690.5V2089H1830.88C1833.3 2089 1835.63 2088.13 1837.45 2086.54L1872.21 2056.23L1878.79 2063.77Z" fill="white" stroke="#6AC9C8" stroke-width="4" stroke-linecap="round" stroke-linejoin="round" stroke-dasharray="2 6"/>
</g>
<defs>
<clipPath id="clip0">
<rect width="3000" height="3500" fill="white"/>
</clipPath>
</defs>
</svg>
